# xmcd
#
# Track frame offsets: 
#        150
#        14128
#        31442
#        43142
#        54691
#        66256
#        77011
#        90979
#        104197
#        120396
#        141854
#        156465
#
# Disc length: 2189 seconds
#
# Revision: 0
# Processed by: cddbd v1.5.2PL0 Copyright (c) Steve Scherf et al.
# Submitted via: ExactAudioCopy v0.95b4
#
DISCID=ab088b0c
DTITLE=All 4 Hym - A New Day Dawning
DYEAR=2006
DGENRE=Bluegrass
TTITLE0=Cotton Dan
TTITLE1=I Can't Say Goodbye
TTITLE2=A New Day Dawning
TTITLE3=Going Home
TTITLE4=Using My Bible For A Roadmap
TTITLE5=Pikeville Flood
TTITLE6=I Play The Fool
TTITLE7=Gold Dust Woman
TTITLE8=Green Pastures In The Sky
TTITLE9=I Am The Vine
TTITLE10=Wild Wind
TTITLE11=I Love You Lord
EXTD=
EXTT0=
EXTT1=
EXTT2=
EXTT3=
EXTT4=
EXTT5=
EXTT6=
EXTT7=
EXTT8=
EXTT9=
EXTT10=
EXTT11=
PLAYORDER=
